# Blender 4.5.2 LTS
# www.blender.org
mtllib Car.mtl
o Car
v 0.000000 1.388709 -2.109826
v 0.896330 1.388709 -2.109826
v 1.018379 0.660728 -2.600904
v 1.052067 0.139574 -2.952462
v -0.000001 0.139574 -2.952462
v 0.000000 1.434340 -0.933973
v 0.915067 1.434340 -0.933973
v 0.000000 1.383664 0.957532
v 0.952730 1.383664 0.813551
v 0.000000 0.657958 1.631316
v 1.142522 0.657958 1.487335
v 0.000000 0.499629 2.980704
v 1.077049 0.500774 2.915109
v 0.984863 -0.334481 -2.765873
v 0.000000 -0.334481 -2.765873
v 0.000000 -0.317564 2.908589
v 1.014574 -0.256123 2.811274
v 1.142523 0.668900 0.945055
v 1.045675 0.637443 -2.122939
v 1.177483 0.229299 2.007974
v 1.152040 0.025876 2.598758
v 1.091720 0.667529 -0.947357
v 1.108969 -0.409043 1.505878
v 1.028557 -0.345404 -2.140095
v 0.000000 -0.362171 2.850357
v 1.207366 0.040886 1.738892
v 1.137257 -0.269707 1.631946
v 1.169730 0.223567 2.336414
v 1.105749 -0.398928 0.926416
v 1.071986 -0.372290 -0.599704
v 0.425003 -0.288986 2.648235
v 0.524144 -0.368069 1.628384
v 0.482641 0.222840 2.289850
v 0.493578 0.109943 -1.307301
v 0.475603 0.115676 -1.635740
v 1.141838 0.184042 -1.668036
v 0.478331 0.025150 2.552194
v 0.533657 0.040159 1.692328
v 0.469783 -0.144014 2.603913
v 1.028557 -0.314965 -2.044064
v 1.108498 -0.004373 -1.937119
v 0.495948 -0.072738 -1.904823
v 1.159814 0.178308 -1.339597
v 1.145495 -0.019382 -1.077253
v 0.543008 -0.087747 -1.044957
v 1.013830 -0.356628 2.694216
v 0.560877 -0.270434 1.585382
v 0.604761 -0.323011 -0.953102
v 0.499672 0.223854 2.231746
v 0.503773 0.228572 1.961411
v 0.546842 -0.277805 -2.009927
v 1.105988 -0.288259 2.694798
v 0.487229 -0.357355 2.647652
v 1.173382 0.224581 2.278310
v 1.068982 -0.365521 -0.987333
v 1.102529 -0.411976 1.674168
v 1.126872 -0.143287 2.650476
v 1.028557 -0.347252 -2.034193
v 0.556448 -0.310092 -2.000055
v -1.018380 0.660728 -2.600904
v -0.896330 1.388709 -2.109826
v -1.052068 0.139574 -2.952461
v -0.915067 1.434340 -0.933973
v -0.952730 1.383664 0.813551
v -1.142522 0.657958 1.487336
v -1.077049 0.500774 2.915109
v -0.984864 -0.334481 -2.765872
v -1.014574 -0.256123 2.811274
v -1.142523 0.668900 0.945056
v -1.045675 0.637443 -2.122939
v -1.177482 0.229299 2.007975
v -1.152040 0.025876 2.598758
v -1.091720 0.667529 -0.947357
v -1.108969 -0.409043 1.505878
v -1.028558 -0.345404 -2.140095
v -1.207366 0.040886 1.738892
v -1.137256 -0.269707 1.631947
v -1.169729 0.223567 2.336414
v -1.105749 -0.398928 0.926417
v -1.071986 -0.372290 -0.599704
v -0.425003 -0.288986 2.648235
v -0.482640 0.222840 2.289850
v -0.524144 -0.368069 1.628384
v -0.493579 0.109943 -1.307301
v -1.141839 0.184042 -1.668036
v -0.475603 0.115676 -1.635740
v -0.478330 0.025150 2.552194
v -0.533656 0.040159 1.692328
v -0.469783 -0.144014 2.603913
v -1.028558 -0.314965 -2.044064
v -0.495948 -0.072738 -1.904823
v -1.108498 -0.004373 -1.937118
v -1.159814 0.178308 -1.339597
v -0.543008 -0.087747 -1.044957
v -1.145496 -0.019382 -1.077253
v -1.013829 -0.356628 2.694216
v -0.560877 -0.270434 1.585383
v -0.604761 -0.323011 -0.953101
v -0.499671 0.223854 2.231746
v -0.503773 0.228572 1.961411
v -0.546842 -0.277805 -2.009927
v -1.105987 -0.288259 2.694798
v -0.487228 -0.357355 2.647652
v -1.173381 0.224581 2.278310
v -1.068983 -0.365521 -0.987333
v -1.102528 -0.411976 1.674168
v -1.126871 -0.143287 2.650476
v -1.028558 -0.347252 -2.034193
v -0.556449 -0.310092 -2.000055
v -1.031644 -0.238862 2.955042
v -1.031644 -0.098862 2.955043
v -1.128356 -0.098862 2.815042
v -1.128356 -0.238862 2.815042
v 1.031644 -0.238862 2.955042
v 1.128356 -0.238862 2.815042
v 1.128356 -0.098862 2.815042
v 1.031644 -0.098862 2.955042
v 0.000000 -0.238862 2.890205
v 0.000001 -0.238862 3.030205
v 0.000000 -0.098862 2.890205
v 0.000001 -0.098862 3.030205
v -1.088245 -0.215518 -2.804518
v -1.088245 -0.075518 -2.863049
v -1.031755 -0.075518 -3.003049
v -1.031755 -0.215518 -2.944518
v 1.088245 -0.215518 -2.804518
v 1.031755 -0.215518 -2.944518
v 1.031755 -0.075518 -3.003049
v 1.088245 -0.075518 -2.863049
v 1.350591 0.759495 1.406562
v 1.323950 0.659884 1.414061
v 1.318928 0.659884 1.397566
v 1.345568 0.759495 1.390067
v 1.224528 0.633193 1.442049
v 1.219506 0.633193 1.425554
v 1.151746 0.706114 1.462538
v 1.146724 0.706114 1.446043
v 1.178386 0.805725 1.455039
v 1.173364 0.805725 1.438544
v 1.277808 0.832415 1.427051
v 1.272786 0.832415 1.410556
v 1.135319 0.651354 1.553333
v 1.225153 0.739537 1.434276
v 1.259577 0.706438 1.434276
v 1.144216 0.596316 1.553333
v 1.135319 0.651354 1.574273
v 1.144216 0.596316 1.574273
v 0.859080 0.177092 2.159783
v 0.859080 0.039948 2.482874
v 1.132711 0.039948 2.482874
v 1.132711 0.177092 2.159783
v 0.859080 -0.285487 2.614358
v 1.132711 -0.285487 2.614358
v 0.859080 -0.608578 2.477214
v 1.132711 -0.608578 2.477214
v 0.859080 -0.740062 2.151779
v 1.132711 -0.740062 2.151779
v 0.859080 -0.602918 1.828689
v 1.132711 -0.602918 1.828688
v 0.859080 -0.277483 1.697204
v 1.132711 -0.277483 1.697204
v 0.859081 0.045607 1.834348
v 1.132711 0.045607 1.834348
v 0.859080 0.045606 -1.188930
v 0.859080 -0.277483 -1.051786
v 1.132711 -0.277483 -1.051786
v 1.132711 0.045607 -1.188930
v 0.859080 -0.602919 -1.183270
v 1.132711 -0.602919 -1.183270
v 0.859080 -0.740063 -1.506361
v 1.132711 -0.740063 -1.506361
v 0.859080 -0.608579 -1.831796
v 1.132711 -0.608579 -1.831796
v 0.859080 -0.285488 -1.968940
v 1.132711 -0.285488 -1.968940
v 0.859080 0.039947 -1.837455
v 1.132711 0.039947 -1.837456
v 0.859080 0.177091 -1.514365
v 1.132711 0.177091 -1.514365
v -0.859081 0.045607 2.477214
v -1.132712 0.045607 2.477214
v -1.132712 -0.277483 2.614357
v -0.859081 -0.277483 2.614357
v -1.132712 -0.602918 2.482873
v -0.859081 -0.602918 2.482873
v -1.132712 -0.740062 2.159782
v -0.859081 -0.740062 2.159782
v -1.132712 -0.608578 1.834347
v -0.859081 -0.608578 1.834347
v -1.132712 -0.285487 1.697204
v -0.859081 -0.285487 1.697204
v -1.132712 0.039948 1.828688
v -0.859081 0.039948 1.828688
v -1.132712 0.177092 2.151778
v -0.859081 0.177092 2.151778
v -0.859080 0.177091 -1.506361
v -1.132710 0.177091 -1.506361
v -1.132711 0.039947 -1.183271
v -0.859080 0.039947 -1.183271
v -1.132711 -0.285488 -1.051787
v -0.859080 -0.285488 -1.051787
v -1.132711 -0.608578 -1.188930
v -0.859079 -0.608578 -1.188930
v -1.132711 -0.740063 -1.514365
v -0.859080 -0.740063 -1.514366
v -1.132710 -0.602919 -1.837456
v -0.859079 -0.602919 -1.837456
v -1.132710 -0.277484 -1.968940
v -0.859079 -0.277484 -1.968940
v -1.132711 0.045607 -1.831797
v -0.859080 0.045607 -1.831797
v -0.574688 -0.298768 3.047229
v -0.574688 -0.298769 2.915941
v -0.470000 -0.298769 2.924260
v -0.470000 -0.298768 3.047229
v -0.574688 -0.017145 3.068230
v -0.470000 -0.017145 3.068230
v -0.470000 -0.017146 2.948594
v -0.574688 -0.017146 2.940275
v 0.574688 -0.298768 3.047229
v 0.470000 -0.298768 3.047229
v 0.470000 -0.298769 2.924260
v 0.574688 -0.298769 2.915941
v 0.574688 -0.017145 3.068230
v 0.574688 -0.017146 2.940275
v 0.470000 -0.017146 2.948594
v 0.470000 -0.017145 3.068230
v -0.762344 -0.298769 -2.977442
v -0.657656 -0.298769 -2.977442
v -0.657656 -0.298770 -2.854473
v -0.762344 -0.298770 -2.846154
v -0.762344 -0.017146 -3.082116
v -0.762344 -0.017147 -2.954161
v -0.657656 -0.017147 -2.962480
v -0.657656 -0.017146 -3.082116
v 0.762344 -0.298769 -2.977442
v 0.762344 -0.298770 -2.846154
v 0.657656 -0.298770 -2.854473
v 0.657656 -0.298769 -2.977442
v 0.762344 -0.017146 -3.082116
v 0.657656 -0.017146 -3.082116
v 0.657656 -0.017147 -2.962480
v 0.762344 -0.017147 -2.954161
v 0.000000 0.533443 -2.818212
v 0.000000 0.428755 -2.880659
v -0.210000 0.428755 -2.758518
v -0.210000 0.533442 -2.687752
v 0.210000 0.533442 -2.689430
v 0.210000 0.428755 -2.760195
vn -0.0000 0.5592 -0.8290
vn -0.0000 0.9992 -0.0388
vn -0.0000 0.9997 0.0250
vn 0.0044 0.9996 0.0289
vn 0.0037 0.9996 0.0286
vn 0.0905 0.6902 0.7179
vn 0.0141 0.9931 0.1161
vn 0.0056 0.9940 0.1097
vn 0.0062 0.9939 0.1101
vn 0.0147 0.9931 0.1165
vn -0.0000 -0.3663 -0.9305
vn 0.0606 -0.0877 0.9943
vn 0.1031 -0.1435 0.9843
vn 0.9663 0.2575 0.0052
vn 0.9670 0.2543 -0.0135
vn 0.9796 0.1955 -0.0464
vn 0.9796 0.1955 -0.0461
vn 0.9797 0.1955 -0.0449
vn 0.9858 0.1562 0.0624
vn 0.9025 -0.1308 0.4103
vn 0.9741 0.2248 -0.0242
vn 0.9741 0.2248 -0.0261
vn 0.9741 0.2248 -0.0246
vn 0.9994 -0.0339 -0.0053
vn 0.9995 -0.0314 -0.0006
vn 0.9995 -0.0319 -0.0015
vn 0.9833 -0.1676 -0.0716
vn 0.9937 0.0993 -0.0519
vn 0.1058 -0.7894 0.6047
vn 0.9132 -0.0678 -0.4017
vn 0.9896 0.0744 0.1228
vn 0.9993 -0.0276 -0.0232
vn 0.9994 -0.0265 -0.0226
vn 0.9991 -0.0334 -0.0265
vn -0.0000 0.9996 0.0268
vn 0.9941 -0.0420 0.0999
vn 0.9944 -0.0401 0.0982
vn 0.9945 -0.0391 0.0973
vn 0.1010 -0.9946 -0.0229
vn 0.0417 -0.7985 -0.6006
vn 0.0423 -0.7993 -0.5995
vn 0.0421 -0.7991 -0.5997
vn -0.0652 -0.3117 0.9479
vn 0.0673 -0.2986 -0.9520
vn 0.0662 -0.2948 -0.9533
vn 0.0665 -0.2962 -0.9528
vn 0.0877 -0.3444 0.9347
vn 0.0529 -0.7937 -0.6060
vn 0.0585 -0.7988 -0.5987
vn 0.0574 -0.7978 -0.6002
vn 0.1039 -0.7549 0.6475
vn -0.0756 -0.3306 0.9408
vn 0.9761 0.2117 -0.0487
vn 0.9764 0.2100 -0.0498
vn 0.9762 0.2110 -0.0491
vn -0.0084 -0.3656 -0.9307
vn 0.0023 -0.9999 -0.0171
vn 0.0023 -0.9998 -0.0174
vn 0.9946 -0.0383 0.0966
vn 0.1101 0.6763 0.7284
vn 0.9797 0.1955 -0.0434
vn 0.9934 0.0591 0.0987
vn 0.9749 0.2184 -0.0441
vn 0.0285 -0.4503 0.8924
vn 0.0877 -0.1098 -0.9901
vn 0.4886 -0.6635 0.5666
vn 0.9843 0.1714 -0.0429
vn 0.9572 0.2888 0.0196
vn 0.0023 -0.9998 -0.0173
vn 0.9862 0.0508 -0.1578
vn 0.1114 -0.8205 0.5607
vn 0.8313 -0.0398 0.5544
vn -0.0926 -0.2311 -0.9685
vn 0.7395 0.6729 0.0197
vn 0.0680 0.0704 -0.9952
vn -0.0772 0.3009 0.9505
vn 0.9826 -0.0341 -0.1828
vn 0.9979 -0.0590 -0.0281
vn 0.0416 -0.7983 -0.6009
vn 0.7956 0.0664 0.6022
vn 0.7944 0.0693 0.6034
vn 0.7959 0.0656 0.6019
vn 0.0670 -0.3069 -0.9494
vn -0.0385 -0.8206 0.5703
vn -0.0385 -0.8205 0.5703
vn 0.9910 0.1324 0.0173
vn 0.9861 0.1578 -0.0512
vn 0.9928 0.1161 0.0289
vn 0.9407 0.3073 -0.1440
vn 0.1206 -0.8089 0.5755
vn 0.9659 0.2585 0.0128
vn 0.0519 -0.7928 -0.6072
vn 0.9740 0.2249 -0.0263
vn 0.9991 -0.0339 -0.0268
vn -0.0404 0.4154 0.9087
vn 0.8566 -0.0993 0.5063
vn 0.9732 -0.2277 0.0333
vn 0.9570 -0.2765 0.0876
vn 0.0900 0.2912 0.9524
vn 1.0000 -0.0000 -0.0000
vn 0.0659 -0.3028 -0.9508
vn 0.8276 -0.3815 -0.4118
vn 0.0654 -0.3003 -0.9516
vn 0.7940 0.0702 0.6038
vn 0.0932 0.3164 0.9440
vn 0.9610 0.2734 -0.0410
vn 0.9994 -0.0343 -0.0062
vn 0.8185 -0.5261 0.2307
vn 0.0022 -0.9998 -0.0173
vn 0.9793 0.1919 0.0649
vn 0.9997 -0.0217 -0.0081
vn 0.9954 0.0849 -0.0433
vn 0.9800 -0.1820 -0.0803
vn -0.0037 0.9996 0.0286
vn -0.0044 0.9996 0.0289
vn -0.0905 0.6902 0.7179
vn -0.0141 0.9931 0.1161
vn -0.0062 0.9939 0.1101
vn -0.0056 0.9940 0.1097
vn -0.0147 0.9931 0.1165
vn -0.0606 -0.0877 0.9943
vn -0.1031 -0.1435 0.9843
vn -0.9663 0.2575 0.0052
vn -0.9670 0.2543 -0.0135
vn -0.9796 0.1955 -0.0464
vn -0.9797 0.1955 -0.0449
vn -0.9796 0.1955 -0.0460
vn -0.9858 0.1562 0.0624
vn -0.9025 -0.1308 0.4103
vn -0.9741 0.2248 -0.0242
vn -0.9741 0.2248 -0.0243
vn -0.9740 0.2249 -0.0258
vn -0.9994 -0.0339 -0.0053
vn -0.9995 -0.0319 -0.0015
vn -0.9995 -0.0314 -0.0006
vn -0.9833 -0.1676 -0.0716
vn -0.9937 0.0993 -0.0519
vn -0.1058 -0.7894 0.6047
vn -0.9132 -0.0678 -0.4017
vn -0.9896 0.0744 0.1228
vn -0.9993 -0.0276 -0.0232
vn -0.9991 -0.0334 -0.0265
vn -0.9994 -0.0265 -0.0226
vn -0.9941 -0.0420 0.0999
vn -0.9945 -0.0391 0.0973
vn -0.9944 -0.0401 0.0982
vn -0.1010 -0.9946 -0.0229
vn -0.0417 -0.7985 -0.6006
vn -0.0421 -0.7991 -0.5997
vn -0.0423 -0.7993 -0.5995
vn 0.0652 -0.3117 0.9479
vn -0.0675 -0.2971 -0.9525
vn -0.0666 -0.2962 -0.9528
vn -0.0662 -0.2948 -0.9533
vn -0.0877 -0.3444 0.9347
vn -0.0529 -0.7937 -0.6060
vn -0.0574 -0.7978 -0.6002
vn -0.0585 -0.7988 -0.5987
vn -0.1039 -0.7549 0.6475
vn 0.0756 -0.3306 0.9408
vn -0.9761 0.2117 -0.0487
vn -0.9762 0.2110 -0.0491
vn -0.9764 0.2100 -0.0498
vn 0.0084 -0.3656 -0.9307
vn -0.0023 -0.9999 -0.0171
vn -0.0023 -0.9998 -0.0174
vn -0.9946 -0.0383 0.0966
vn -0.1101 0.6763 0.7284
vn -0.9797 0.1955 -0.0434
vn -0.9934 0.0591 0.0987
vn -0.9749 0.2184 -0.0441
vn -0.0285 -0.4503 0.8924
vn -0.0877 -0.1098 -0.9901
vn -0.4886 -0.6635 0.5666
vn -0.9843 0.1714 -0.0429
vn -0.9572 0.2888 0.0196
vn -0.0023 -0.9998 -0.0173
vn -0.9862 0.0508 -0.1578
vn -0.1114 -0.8205 0.5607
vn -0.8313 -0.0397 0.5544
vn 0.0926 -0.2311 -0.9685
vn -0.7395 0.6729 0.0197
vn -0.0680 0.0704 -0.9952
vn 0.0772 0.3009 0.9505
vn -0.9826 -0.0341 -0.1828
vn -0.9979 -0.0590 -0.0281
vn -0.0416 -0.7983 -0.6009
vn -0.7956 0.0664 0.6022
vn -0.7959 0.0656 0.6019
vn -0.7944 0.0693 0.6034
vn -0.0670 -0.3069 -0.9494
vn 0.0385 -0.8206 0.5703
vn -0.9910 0.1324 0.0173
vn -0.9861 0.1578 -0.0512
vn -0.9928 0.1161 0.0289
vn -0.9407 0.3073 -0.1440
vn -0.1206 -0.8089 0.5755
vn -0.9659 0.2585 0.0128
vn -0.0519 -0.7928 -0.6072
vn -0.9740 0.2249 -0.0263
vn -0.9991 -0.0339 -0.0268
vn 0.0404 0.4154 0.9087
vn -0.8566 -0.0993 0.5063
vn -0.9732 -0.2277 0.0333
vn -0.9570 -0.2765 0.0876
vn -0.0900 0.2912 0.9524
vn -1.0000 -0.0000 -0.0000
vn -0.0659 -0.3028 -0.9508
vn -0.8276 -0.3815 -0.4118
vn -0.0654 -0.3003 -0.9516
vn -0.7940 0.0702 0.6038
vn -0.0932 0.3164 0.9440
vn -0.9610 0.2734 -0.0410
vn -0.9994 -0.0343 -0.0062
vn -0.8185 -0.5261 0.2307
vn -0.0022 -0.9999 -0.0172
vn -0.9793 0.1919 0.0649
vn -0.0022 -0.9998 -0.0173
vn -0.9997 -0.0217 -0.0081
vn -0.9954 0.0849 -0.0433
vn -0.9800 -0.1820 -0.0803
vn -0.8228 -0.0000 0.5684
vn 0.8228 -0.0000 0.5684
vn -0.0000 -1.0000 -0.0000
vn 0.0665 -0.0000 -0.9978
vn -0.0665 -0.0000 -0.9978
vn -0.0000 1.0000 -0.0000
vn -0.0727 -0.0000 0.9974
vn 0.0727 -0.0000 0.9974
vn -0.9162 -0.1546 -0.3697
vn 0.9162 -0.1546 -0.3697
vn -0.0000 -0.3857 -0.9226
vn -0.0000 0.3857 0.9226
vn -0.0091 -0.9992 -0.0385
vn -0.0000 -1.0000 -0.0077
vn 0.0016 -1.0000 -0.0037
vn -0.0017 -1.0000 -0.0083
vn 0.0038 -1.0000 -0.0078
vn -0.0046 -0.9999 -0.0090
vn 0.0048 -1.0000 -0.0068
vn -0.0000 -1.0000 -0.0079
vn 0.0001 -1.0000 -0.0079
vn -0.0067 -0.9999 -0.0083
vn 0.0039 -0.9999 -0.0095
vn 0.0009 -1.0000 -0.0088
vn 0.0035 -0.9999 -0.0116
vn 0.0042 -0.9998 -0.0180
vn 0.0091 -0.9995 -0.0299
vn 0.0046 -0.9999 -0.0090
vn -0.0048 -1.0000 -0.0068
vn -0.0077 -0.9999 -0.0072
vn 0.0180 -0.9998 0.0050
vn 0.9217 -0.2676 -0.2806
vn 0.9217 -0.2676 -0.2807
vn 0.2394 -0.9682 -0.0729
vn -0.6642 -0.7197 0.2022
vn -0.9217 0.2676 0.2806
vn -0.2394 0.9682 0.0729
vn 0.6642 0.7197 -0.2022
vn 0.6641 0.7197 -0.2022
vn 0.2710 -0.0000 0.9626
vn -0.2710 -0.0000 -0.9626
vn -0.6450 -0.1600 -0.7472
vn -0.5167 -0.4321 -0.7392
vn -0.6627 -0.1071 -0.7412
vn 0.7027 0.1703 0.6908
vn 0.5581 0.4732 0.6816
vn 0.5155 0.5361 0.6685
vn 0.6905 -0.7233 -0.0000
vn -0.7005 0.7136 -0.0000
vn -0.0000 0.9205 0.3907
vn -0.0000 0.3746 0.9272
vn -0.0000 -0.3907 0.9205
vn -0.0000 -0.9272 0.3746
vn -0.0000 -0.9205 -0.3907
vn -0.0000 -0.3746 -0.9272
vn -0.0000 0.3907 -0.9205
vn -0.0000 0.9272 -0.3746
vn -0.0000 0.3907 0.9205
vn -0.0000 -0.3746 0.9272
vn -0.0000 -0.9205 0.3907
vn -0.0000 -0.9272 -0.3746
vn -0.0000 -0.3907 -0.9205
vn -0.0000 0.3746 -0.9272
vn -0.0000 0.9205 -0.3907
vn -0.0000 0.9272 0.3746
vn -0.0000 -0.0744 0.9972
vn 0.0789 0.0858 -0.9932
vn -0.0789 0.0858 -0.9932
vn -0.0000 -0.3484 -0.9373
vn 0.0740 0.3571 0.9311
vn -0.0740 0.3571 0.9311
vn -0.4500 0.4696 -0.7595
vn -0.4548 0.4872 -0.7455
vn -0.4576 0.4979 -0.7366
vn 0.4452 0.4710 -0.7616
vn 0.4500 0.4885 -0.7475
vn 0.4419 0.4596 -0.7704
vn -0.0249 -0.9961 -0.0847
vn -0.4764 -0.4954 -0.7264
vn 0.7197 0.1163 0.6845
vn -0.4469 0.4583 -0.7683
vn 0.4530 0.4993 -0.7386
vt 0.682713 0.971183
vt 0.682713 0.756463
vt 0.806459 0.727571
vt 0.895094 0.719597
vt 0.895094 0.971183
vt 0.776031 0.693320
vt 0.776031 0.476704
vt 0.973449 0.481139
vt 0.458095 0.693320
vt 0.458095 0.467788
vt 0.648417 0.719992
vt 0.648133 0.990451
vt 0.521472 0.957942
vt 0.021213 0.358710
vt 0.261201 0.369735
vt 0.280815 0.587069
vt 0.028130 0.564112
vt 0.986270 0.735505
vt 0.986270 0.971183
vt 0.486860 0.964080
vt 0.320375 0.964077
vt 0.320377 0.762614
vt 0.477280 0.777322
vt 0.344189 0.273059
vt 0.370877 0.447956
vt 0.252646 0.272816
vt 0.665974 0.452525
vt 0.942281 0.255077
vt 0.864033 0.436024
vt 0.861509 0.251514
vt 0.162122 0.169918
vt 0.010815 0.240657
vt 0.023559 0.054356
vt 0.061184 0.122635
vt 0.663398 0.264197
vt 0.242793 0.010930
vt 0.858208 0.010128
vt 0.963835 0.009990
vt 0.998298 0.125540
vt 0.320377 0.733375
vt 0.206324 0.122446
vt 0.222406 0.045707
vt 0.106683 0.169990
vt 0.340602 0.010802
vt 0.598201 0.010467
vt 0.723531 0.048010
vt 0.774306 0.040934
vt 0.741844 0.084938
vt 0.760337 0.082311
vt 0.743958 0.083172
vt 0.742289 0.051231
vt 0.754047 0.056032
vt 0.767298 0.056880
vt 0.764977 0.089180
vt 0.753741 0.059309
vt 0.738163 0.062670
vt 0.738240 0.030370
vt 0.746992 0.051879
vt 0.738604 0.051469
vt 0.738527 0.019169
vt 0.759196 0.054097
vt 0.743618 0.057930
vt 0.746999 0.028562
vt 0.758668 0.050369
vt 0.771918 0.051055
vt 0.773588 0.079941
vt 0.477166 0.734071
vt 0.753817 0.031675
vt 0.757116 0.076102
vt 0.740737 0.076102
vt 0.722703 0.044930
vt 0.759011 0.045407
vt 0.747362 0.048368
vt 0.743982 0.019483
vt 0.748829 0.088157
vt 0.735348 0.087961
vt 0.737668 0.055660
vt 0.771473 0.070833
vt 0.521472 0.719993
vt 0.680980 0.094961
vt 0.726479 0.142316
vt 0.775429 0.046885
vt 0.757314 0.031002
vt 0.754104 0.024069
vt 0.761160 0.028263
vt 0.761237 0.051042
vt 0.050289 0.011181
vt 0.043004 0.045941
vt 0.116491 0.169977
vt 0.751150 0.055857
vt 0.781917 0.142244
vt 0.826119 0.094772
vt 0.729038 0.052829
vt 0.663630 0.010382
vt 0.761160 0.023151
vt 0.725824 0.037672
vt 0.754181 0.054026
vt 0.760797 0.057644
vt 0.728593 0.070833
vt 0.725867 0.058543
vt 0.751727 0.088974
vt 0.051394 0.081335
vt 0.746915 0.021603
vt 0.722097 0.086528
vt 0.724418 0.054228
vt 0.758222 0.084938
vt 0.744741 0.084938
vt 0.770367 0.061997
vt 0.730707 0.082197
vt 0.727487 0.061997
vt 0.973449 0.693320
vt 0.758648 0.029914
vt 0.776535 0.048010
vt 0.214387 0.010968
vt 0.842201 0.018034
vt 0.760797 0.054097
vt 0.840333 0.010151
vt 0.758915 0.031463
vt 0.774908 0.044539
vt 0.344189 0.273060
vt 0.010814 0.240657
vt 0.170000 0.031549
vt 0.111549 0.090000
vt 0.111549 0.031549
vt 0.170000 0.060775
vt 0.111549 0.060775
vt 0.170000 0.090000
vt 0.422587 0.671307
vt 0.404756 0.665806
vt 0.383740 0.695886
vt 0.406582 0.624682
vt 0.403538 0.523284
vt 0.424228 0.610802
vt 0.425626 0.528096
vt 0.424114 0.626027
vt 0.425504 0.550857
vt 0.425383 0.521486
vt 0.360900 0.624682
vt 0.363946 0.523283
vt 0.402145 0.485128
vt 0.383743 0.477165
vt 0.420090 0.483299
vt 0.365341 0.485127
vt 0.347396 0.483298
vt 0.343254 0.610800
vt 0.341858 0.528095
vt 0.342101 0.521485
vt 0.341979 0.550856
vt 0.343367 0.626026
vt 0.362724 0.665805
vt 0.344893 0.671306
vt 0.344893 0.667146
vt 0.346543 0.695886
vt 0.420936 0.695887
vt 0.158145 0.037251
vt 0.150459 0.083368
vt 0.150459 0.037251
vt 0.165831 0.037251
vt 0.158145 0.083368
vt 0.127401 0.037251
vt 0.119715 0.083368
vt 0.119715 0.037251
vt 0.135087 0.083368
vt 0.127401 0.083368
vt 0.135087 0.037251
vt 0.142773 0.083368
vt 0.142773 0.037251
vt 0.158899 0.048780
vt 0.118961 0.048780
vt 0.138930 0.083368
vt 0.118961 0.071839
vt 0.158899 0.071839
vt 0.154327 0.093865
vt 0.125965 0.142989
vt 0.125965 0.093865
vt 0.168507 0.118427
vt 0.154326 0.142989
vt 0.111784 0.118427
vt 0.161988 0.037251
vt 0.115872 0.083368
vt 0.115872 0.037251
vt 0.161988 0.083368
vt 0.161988 0.060309
vt 0.115872 0.060309
vt 0.057429 0.660000
vt 0.094859 0.610001
vt 0.094859 0.660001
vt 0.020000 0.660000
vt 0.057430 0.610000
vt 0.282007 0.660002
vt 0.319437 0.610002
vt 0.319437 0.660002
vt 0.244578 0.660002
vt 0.282007 0.610002
vt 0.207148 0.660001
vt 0.244578 0.610002
vt 0.169718 0.660001
vt 0.207148 0.610001
vt 0.132289 0.660001
vt 0.169719 0.610001
vt 0.132289 0.610001
vt 0.265585 0.724133
vt 0.159718 0.979719
vt 0.309437 0.830000
vt 0.010000 0.830000
vt 0.159718 0.680281
vt 0.053852 0.724133
vt 0.053852 0.935867
vt 0.265585 0.935867
vt 0.067931 0.296061
vt 0.087931 0.326061
vt 0.087931 0.296061
vt 0.067931 0.326061
vt 0.027931 0.276061
vt 0.057931 0.326061
vt 0.057931 0.276061
vt 0.953193 0.420408
vt 0.923193 0.400409
vt 0.923193 0.420409
vt 0.983193 0.400408
vt 0.953193 0.400408
vt 0.953193 0.389094
vt 0.968193 0.369094
vt 0.938193 0.369094
vt 0.938193 0.440409
vt 0.968193 0.440408
vt 0.422587 0.667147
vt 0.165831 0.083368
vt 0.138930 0.037251
vt 0.020000 0.610000
vt 0.027931 0.326061
vt 0.983193 0.420408
s 1
usemtl car_mat.001
f 1/1/1 2/2/1 3/3/1
f 1/1/1 3/3/1 4/4/1
f 1/1/1 4/4/1 5/5/1
f 6/6/2 7/7/2 2/8/2
f 8/9/3 9/10/4 7/7/5
f 10/11/6 11/12/6 9/13/6
f 12/14/7 13/15/8 11/16/9
f 11/16/9 10/17/10 12/14/7
f 5/5/11 4/4/11 14/18/11
f 14/18/11 15/19/11 5/5/11
f 13/20/12 12/21/12 16/22/12
f 16/22/13 17/23/13 13/20/13
f 18/24/14 9/25/14 11/26/14
f 7/27/15 9/25/15 18/24/15
f 3/28/16 2/29/17 19/30/18
f 20/31/19 11/26/19 13/32/19
f 17/33/20 21/34/20 13/32/20
f 2/29/21 7/27/22 22/35/23
f 18/24/24 11/26/25 23/36/26
f 24/37/27 14/38/27 4/39/27
f 4/39/28 3/28/28 19/30/28
f 17/23/29 16/22/29 25/40/29
f 26/41/30 27/42/30 11/26/30
f 21/34/31 28/43/31 13/32/31
f 29/44/32 30/45/33 22/35/34
f 7/7/5 6/6/35 8/9/3
f 31/46/36 32/47/37 33/48/38
f 34/49/39 35/50/39 36/51/39
f 28/52/40 21/53/41 37/54/42
f 27/55/43 26/56/43 38/57/43
f 39/58/44 37/59/45 21/60/46
f 40/61/47 41/62/47 42/63/47
f 43/64/48 44/65/49 45/66/50
f 25/40/51 46/67/51 17/23/51
f 38/57/52 47/68/52 27/55/52
f 35/69/53 34/70/54 48/71/55
f 48/72/56 45/73/56 44/74/56
f 49/75/57 50/76/58 20/77/58
f 32/47/37 38/78/59 33/48/38
f 9/13/60 8/79/60 10/11/60
f 22/35/61 19/30/18 2/29/17
f 22/35/62 44/80/62 43/81/62
f 51/82/63 35/69/53 48/71/55
f 42/63/64 51/83/64 40/61/64
f 52/84/65 46/85/65 53/86/65
f 17/33/66 46/87/66 52/88/66
f 19/30/67 22/35/67 43/81/67
f 54/89/68 20/31/68 13/32/68
f 20/77/58 54/90/69 49/75/57
f 19/30/70 36/91/70 41/92/70
f 41/93/71 36/51/71 35/50/71
f 22/35/72 55/94/72 44/80/72
f 44/74/73 55/95/73 48/72/73
f 31/46/74 53/96/74 32/47/74
f 53/86/75 31/97/75 52/84/75
f 56/98/76 27/55/76 47/68/76
f 27/42/77 23/36/77 11/26/77
f 33/48/78 37/99/78 39/100/78
f 37/54/42 33/101/79 28/52/40
f 17/33/80 57/102/81 21/34/82
f 21/60/46 57/103/83 39/58/44
f 50/76/84 38/104/84 26/105/85
f 38/78/86 50/106/86 49/107/86
f 36/51/39 43/64/39 34/49/39
f 19/30/87 43/81/87 36/91/87
f 20/31/88 26/41/88 11/26/88
f 26/105/85 20/77/85 50/76/84
f 51/82/89 42/108/89 35/69/89
f 35/50/90 42/109/90 41/93/90
f 34/70/91 45/110/91 48/71/91
f 45/66/50 34/49/92 43/64/48
f 2/8/2 1/111/2 6/6/2
f 18/24/93 22/35/23 7/27/22
f 22/35/34 18/24/94 29/44/32
f 47/68/95 32/112/95 56/98/95
f 32/47/96 47/113/96 38/78/96
f 27/42/97 56/114/97 23/36/97
f 40/115/98 24/37/98 41/92/98
f 58/116/99 40/61/99 51/83/99
f 40/115/100 58/117/100 24/37/100
f 31/97/101 39/58/44 57/103/83
f 31/46/102 33/48/102 39/100/102
f 57/103/83 52/84/103 31/97/101
f 17/33/80 52/88/104 57/102/81
f 51/83/105 59/118/105 58/116/105
f 51/82/106 48/71/106 59/119/106
f 23/36/26 29/44/107 18/24/24
f 38/78/108 49/107/108 33/48/108
f 33/101/109 49/75/57 54/90/69
f 28/43/110 54/89/110 13/32/110
f 54/90/69 28/52/109 33/101/109
f 22/35/111 30/45/111 55/94/111
f 41/92/112 4/39/112 19/30/112
f 41/92/113 24/37/113 4/39/113
f 1/1/1 60/3/1 61/2/1
f 1/1/1 62/4/1 60/3/1
f 1/1/1 5/5/1 62/4/1
f 6/6/2 61/8/2 63/7/2
f 8/9/3 63/7/114 64/10/115
f 10/11/116 64/13/116 65/12/116
f 12/14/117 65/16/118 66/15/119
f 65/16/118 12/14/117 10/17/120
f 5/5/11 67/18/11 62/4/11
f 67/18/11 5/5/11 15/19/11
f 66/20/121 16/22/121 12/21/121
f 16/22/122 66/20/122 68/23/122
f 69/120/123 65/26/123 64/25/123
f 63/27/124 69/120/124 64/25/124
f 60/28/125 70/30/126 61/29/127
f 71/31/128 66/121/128 65/26/128
f 68/33/129 66/121/129 72/34/129
f 61/29/130 73/35/131 63/27/132
f 69/120/133 74/36/134 65/26/135
f 75/37/136 62/39/136 67/38/136
f 62/39/137 70/30/137 60/28/137
f 68/23/138 25/40/138 16/22/138
f 76/41/139 65/26/139 77/42/139
f 72/34/140 66/121/140 78/43/140
f 79/44/141 73/35/142 80/45/143
f 63/7/114 8/9/3 6/6/35
f 81/46/144 82/48/145 83/47/146
f 84/49/147 85/51/147 86/50/147
f 78/52/148 87/54/149 72/53/150
f 77/55/151 88/57/151 76/56/151
f 89/58/152 72/60/153 87/59/154
f 90/61/155 91/63/155 92/62/155
f 93/64/156 94/66/157 95/65/158
f 25/40/159 68/23/159 96/67/159
f 88/57/160 77/55/160 97/68/160
f 86/69/161 98/71/162 84/70/163
f 98/72/164 95/74/164 94/73/164
f 99/75/165 71/77/166 100/76/166
f 83/47/146 82/48/145 88/78/167
f 64/13/168 10/11/168 8/79/168
f 73/35/169 61/29/127 70/30/126
f 73/35/170 93/81/170 95/80/170
f 101/82/171 98/71/162 86/69/161
f 91/63/172 90/61/172 101/83/172
f 102/84/173 103/86/173 96/85/173
f 68/33/174 102/88/174 96/87/174
f 70/30/175 93/81/175 73/35/175
f 104/89/176 66/121/176 71/31/176
f 71/77/166 99/75/165 104/90/177
f 70/30/178 92/92/178 85/91/178
f 92/93/179 86/50/179 85/51/179
f 73/35/180 95/80/180 105/94/180
f 95/74/181 98/72/181 105/95/181
f 81/46/182 83/47/182 103/96/182
f 103/86/183 102/84/183 81/97/183
f 106/98/184 97/68/184 77/55/184
f 77/42/185 65/26/185 74/36/185
f 82/48/186 89/100/186 87/99/186
f 87/54/149 78/52/148 82/101/187
f 68/33/188 72/34/189 107/102/190
f 72/60/153 89/58/152 107/103/191
f 100/76/192 76/105/192 88/104/192
f 88/78/193 99/107/193 100/106/193
f 85/51/147 84/49/147 93/64/147
f 70/30/194 85/91/194 93/81/194
f 71/31/195 65/26/195 76/41/195
f 76/105/192 100/76/192 71/77/192
f 101/82/196 86/69/196 91/108/196
f 86/50/197 92/93/197 91/109/197
f 84/70/198 98/71/198 94/110/198
f 94/66/157 93/64/156 84/49/199
f 61/8/2 6/6/2 1/111/2
f 69/120/200 63/27/132 73/35/131
f 73/35/142 79/44/141 69/120/201
f 97/68/202 106/98/202 83/112/202
f 83/47/203 88/78/203 97/113/203
f 77/42/204 74/36/204 106/114/204
f 90/115/205 92/92/205 75/37/205
f 108/116/206 101/83/206 90/61/206
f 90/115/207 75/37/207 108/117/207
f 81/97/208 107/103/191 89/58/152
f 81/46/209 89/100/209 82/48/209
f 107/103/191 81/97/208 102/84/210
f 68/33/188 107/102/190 102/88/211
f 101/83/212 108/116/212 109/118/212
f 101/82/213 109/119/213 98/71/213
f 74/36/134 69/120/133 79/44/214
f 88/78/215 82/48/215 99/107/215
f 82/101/216 104/90/177 99/75/165
f 78/43/217 66/121/217 104/89/217
f 104/90/177 82/101/216 78/52/218
f 73/35/219 105/94/219 80/45/219
f 92/92/220 70/30/220 62/39/220
f 92/92/221 62/39/221 75/37/221
f 110/122/222 112/123/222 113/124/222
f 115/122/223 117/123/223 114/124/223
f 110/124/224 118/125/224 119/126/224
f 118/125/224 114/123/224 119/126/224
f 112/122/225 118/126/225 113/124/225
f 120/125/226 115/123/226 118/126/226
f 111/122/227 120/126/227 112/124/227
f 120/126/227 117/127/227 116/123/227
f 111/124/228 119/125/228 121/126/228
f 119/125/229 117/123/229 121/126/229
f 123/127/230 125/124/230 122/122/230
f 127/122/231 129/123/231 126/124/231
f 125/122/224 126/123/224 122/124/224
f 124/122/232 127/123/232 125/124/232
f 123/122/227 128/123/227 124/124/227
f 122/122/233 129/123/233 123/124/233
f 24/128/234 59/129/235 15/130/236
f 15/130/236 48/131/237 32/132/238
f 32/132/238 30/133/239 23/134/240
f 48/131/237 55/135/241 30/133/239
f 30/133/239 29/136/242 23/134/240
f 23/134/240 56/137/241 32/132/238
f 98/138/243 32/132/238 83/139/244
f 83/139/244 53/140/245 25/141/246
f 53/140/245 46/142/241 25/141/246
f 103/143/247 25/141/246 96/144/248
f 80/145/249 83/139/244 74/146/250
f 83/139/244 106/147/241 74/146/250
f 74/146/250 79/148/241 80/145/249
f 80/145/249 105/149/241 98/138/243
f 15/130/236 109/150/251 75/151/252
f 109/150/251 108/152/241 75/151/252
f 75/151/252 67/153/241 15/130/236
f 14/154/241 24/128/234 15/130/236
f 131/155/253 133/156/254 130/157/254
f 134/158/255 132/159/255 131/155/255
f 136/160/256 135/161/256 134/162/256
f 136/160/257 139/163/257 137/164/257
f 138/165/258 141/166/258 139/163/258
f 140/167/259 133/156/260 141/166/259
f 138/168/261 134/169/261 130/170/261
f 134/169/261 131/171/261 130/170/261
f 140/172/261 138/168/261 130/170/261
f 135/173/262 141/174/262 132/175/262
f 137/176/262 139/177/262 141/174/262
f 133/178/262 132/175/262 141/174/262
f 142/179/263 144/180/264 145/181/265
f 146/181/266 144/182/267 143/180/268
f 145/181/269 144/183/269 147/180/269
f 142/179/270 146/182/270 143/184/270
f 149/185/271 151/186/271 148/187/271
f 152/188/272 150/189/272 149/185/272
f 154/190/273 153/191/273 152/192/273
f 156/193/274 155/194/274 154/190/274
f 158/195/275 157/196/275 156/193/275
f 160/197/276 159/198/276 158/195/276
f 162/199/277 161/200/277 160/197/277
f 162/199/278 151/186/278 163/201/278
f 158/202/207 148/203/207 160/204/207
f 152/205/207 156/206/207 154/207/207
f 152/205/207 149/208/207 148/203/207
f 162/209/207 160/204/207 148/203/207
f 153/205/100 163/209/100 150/208/100
f 163/209/100 157/206/100 159/202/100
f 159/202/100 161/204/100 163/209/100
f 151/203/100 150/208/100 163/209/100
f 164/187/279 166/189/279 167/186/279
f 168/188/280 166/189/280 165/185/280
f 170/190/281 169/191/281 168/192/281
f 172/193/282 171/194/282 170/190/282
f 174/195/283 173/196/283 172/193/283
f 174/195/284 177/200/284 175/198/284
f 176/197/285 179/201/285 177/200/285
f 178/199/286 167/186/286 179/201/286
f 176/204/207 172/206/207 164/203/207
f 164/203/207 170/207/207 168/205/207
f 168/205/207 165/208/207 164/203/207
f 178/209/207 176/204/207 164/203/207
f 166/208/100 171/207/100 179/209/100
f 175/202/100 171/207/100 173/206/100
f 175/202/100 177/204/100 179/209/100
f 167/203/100 166/208/100 179/209/100
f 181/186/279 183/185/279 180/187/279
f 182/189/280 185/188/280 183/185/280
f 184/191/281 187/190/281 185/192/281
f 186/194/282 189/193/282 187/190/282
f 188/196/283 191/195/283 189/193/283
f 190/198/284 193/197/284 191/195/284
f 192/200/285 195/199/285 193/197/285
f 194/201/286 180/187/286 195/199/286
f 183/208/100 189/206/100 180/203/100
f 185/205/100 187/207/100 189/206/100
f 180/203/100 191/202/100 193/204/100
f 195/209/100 180/203/100 193/204/100
f 194/209/207 190/202/207 186/207/207
f 190/202/207 188/206/207 186/207/207
f 182/208/207 186/207/207 184/205/207
f 181/203/207 194/209/207 182/208/207
f 197/186/271 199/185/271 196/187/271
f 198/189/272 201/188/272 199/185/272
f 201/192/273 202/194/273 203/190/273
f 202/194/274 205/193/274 203/190/274
f 205/193/275 206/198/275 207/195/275
f 206/198/276 209/197/276 207/195/276
f 208/200/277 211/199/277 209/197/277
f 211/199/278 197/186/278 196/187/278
f 199/208/100 205/206/100 196/203/100
f 201/205/100 203/207/100 205/206/100
f 209/204/100 205/206/100 207/202/100
f 211/209/100 196/203/100 209/204/100
f 208/204/207 202/207/207 210/209/207
f 206/202/207 204/206/207 202/207/207
f 210/209/207 200/205/207 198/208/207
f 197/203/207 210/209/207 198/208/207
f 212/210/224 214/211/224 215/212/224
f 216/212/227 218/213/227 219/211/227
f 215/214/287 216/215/287 212/216/287
f 215/212/100 218/213/100 217/211/100
f 214/212/288 219/213/288 218/211/288
f 212/210/207 219/211/207 213/212/207
f 220/210/224 222/211/224 223/213/224
f 224/212/227 226/213/227 227/210/227
f 224/215/287 221/214/287 220/216/287
f 221/212/207 226/213/207 222/210/207
f 222/212/289 225/213/289 223/210/289
f 225/211/100 220/210/100 223/212/100
f 228/210/224 230/211/224 231/213/224
f 232/212/227 234/213/227 235/210/227
f 232/215/290 229/214/290 228/216/290
f 229/212/100 234/213/100 230/210/100
f 230/212/291 233/213/291 231/210/291
f 233/211/207 228/210/207 231/212/207
f 236/210/224 238/211/224 239/212/224
f 240/212/227 242/213/227 243/211/227
f 239/214/290 240/215/290 236/216/290
f 239/212/207 242/213/207 241/211/207
f 238/212/292 243/213/292 242/211/292
f 236/210/100 243/211/100 237/212/100
f 244/217/293 246/218/294 247/219/295
f 244/217/296 249/220/297 245/221/298
f 245/222/224 249/223/224 246/224/224
f 247/225/227 248/226/227 244/217/227
f 110/122/222 111/127/222 112/123/222
f 115/122/223 116/127/223 117/123/223
f 110/124/224 113/122/224 118/125/224
f 118/125/224 115/127/224 114/123/224
f 112/122/225 120/125/225 118/126/225
f 120/125/226 116/127/226 115/123/226
f 111/122/227 121/125/227 120/126/227
f 120/126/227 121/125/227 117/127/227
f 111/124/228 110/122/228 119/125/228
f 119/125/229 114/127/229 117/123/229
f 123/127/230 124/123/230 125/124/230
f 127/122/231 128/127/231 129/123/231
f 125/122/224 127/127/224 126/123/224
f 124/122/232 128/127/232 127/123/232
f 123/122/227 129/127/227 128/123/227
f 122/122/233 126/127/233 129/123/233
f 24/128/234 58/227/299 59/129/235
f 15/130/236 59/129/235 48/131/237
f 32/132/238 48/131/237 30/133/239
f 98/138/243 15/130/236 32/132/238
f 83/139/244 32/132/238 53/140/245
f 103/143/247 83/139/244 25/141/246
f 80/145/249 98/138/243 83/139/244
f 15/130/236 98/138/243 109/150/251
f 131/155/253 132/159/253 133/156/254
f 134/158/255 135/228/255 132/159/255
f 136/160/256 137/164/256 135/161/256
f 136/160/257 138/165/257 139/163/257
f 138/165/258 140/167/258 141/166/258
f 140/167/259 130/157/260 133/156/260
f 138/168/261 136/229/261 134/169/261
f 135/173/262 137/176/262 141/174/262
f 142/179/263 143/182/300 144/180/264
f 146/181/266 147/179/301 144/182/267
f 149/185/271 150/189/271 151/186/271
f 152/188/272 153/230/272 150/189/272
f 154/190/273 155/194/273 153/191/273
f 156/193/274 157/196/274 155/194/274
f 158/195/275 159/198/275 157/196/275
f 160/197/276 161/200/276 159/198/276
f 162/199/277 163/201/277 161/200/277
f 162/199/278 148/187/278 151/186/278
f 158/202/207 156/206/207 148/203/207
f 152/205/207 148/203/207 156/206/207
f 153/205/100 155/207/100 163/209/100
f 163/209/100 155/207/100 157/206/100
f 164/187/279 165/185/279 166/189/279
f 168/188/280 169/230/280 166/189/280
f 170/190/281 171/194/281 169/191/281
f 172/193/282 173/196/282 171/194/282
f 174/195/283 175/198/283 173/196/283
f 174/195/284 176/197/284 177/200/284
f 176/197/285 178/199/285 179/201/285
f 178/199/286 164/187/286 167/186/286
f 176/204/207 174/202/207 172/206/207
f 164/203/207 172/206/207 170/207/207
f 166/208/100 169/205/100 171/207/100
f 175/202/100 179/209/100 171/207/100
f 181/186/279 182/189/279 183/185/279
f 182/189/280 184/230/280 185/188/280
f 184/191/281 186/194/281 187/190/281
f 186/194/282 188/196/282 189/193/282
f 188/196/283 190/198/283 191/195/283
f 190/198/284 192/200/284 193/197/284
f 192/200/285 194/201/285 195/199/285
f 194/201/286 181/186/286 180/187/286
f 183/208/100 185/205/100 189/206/100
f 180/203/100 189/206/100 191/202/100
f 194/209/207 192/204/207 190/202/207
f 182/208/207 194/209/207 186/207/207
f 197/186/271 198/189/271 199/185/271
f 198/189/272 200/230/272 201/188/272
f 201/192/273 200/191/273 202/194/273
f 202/194/274 204/196/274 205/193/274
f 205/193/275 204/196/275 206/198/275
f 206/198/276 208/200/276 209/197/276
f 208/200/277 210/201/277 211/199/277
f 211/199/278 210/201/278 197/186/278
f 199/208/100 201/205/100 205/206/100
f 209/204/100 196/203/100 205/206/100
f 208/204/207 206/202/207 202/207/207
f 210/209/207 202/207/207 200/205/207
f 212/210/224 213/213/224 214/211/224
f 216/212/227 217/210/227 218/213/227
f 215/214/287 217/231/287 216/215/287
f 215/212/100 214/210/100 218/213/100
f 214/212/288 213/210/288 219/213/288
f 212/210/207 216/213/207 219/211/207
f 220/210/224 221/212/224 222/211/224
f 224/212/227 225/211/227 226/213/227
f 224/215/287 227/231/287 221/214/287
f 221/212/207 227/211/207 226/213/207
f 222/212/289 226/211/289 225/213/289
f 225/211/100 224/213/100 220/210/100
f 228/210/224 229/212/224 230/211/224
f 232/212/227 233/211/227 234/213/227
f 232/215/290 235/231/290 229/214/290
f 229/212/100 235/211/100 234/213/100
f 230/212/291 234/211/291 233/213/291
f 233/211/207 232/213/207 228/210/207
f 236/210/224 237/213/224 238/211/224
f 240/212/227 241/210/227 242/213/227
f 239/214/290 241/231/290 240/215/290
f 239/212/207 238/210/207 242/213/207
f 238/212/292 237/210/292 243/213/292
f 236/210/100 240/213/100 243/211/100
f 244/217/293 245/221/302 246/218/294
f 244/217/296 248/232/303 249/220/297
